# xmcd
#
# Track frame offsets:
#	150
#	15625
#	27622
#	39898
#	51102
#	63394
#	75049
#	87298
#	100715
#	114701
#	127491
#	148820
#	164884
#	185625
#	201871
#	216644
#	232110
#	248749
#	263955
#	281908
#	294713
#	312787
#	331783
#
# Disc length: 4638 seconds
#
# Revision: 1
# Processed by: cddbd v1.5.2PL0 Copyright (c) Steve Scherf et al.
# Submitted via: audiograbber 1.83.01
#
DISCID=65121c17
DTITLE=Super Schlager Hits - Super Schlager Hits_CD2
DYEAR=2011
DGENRE=Deutscher Schlager
TTITLE0=Ibo - Bungalow in Santa Nirgendwo
TTITLE1=Connie Francis - Schöner fremder Mann
TTITLE2=Gus Backus - Da sprach der alte Häuptling
TTITLE3=Peter Alexander and Leila Negra - Die süßesten Früchte fressen nur die gr
TTITLE3=oßen Tiere
TTITLE4=Conny Froboess - Zwei kleine Italiener
TTITLE5=Drafi Deutscher - Marmor, Stein und Eisen bricht
TTITLE6=Cliff Richard and The Shadows - Rote Lippen soll man küssen
TTITLE7=Mina - Heißer Sand
TTITLE8=Original Nilson Brothers - Aber Dich gibt's nur einmal für mich
TTITLE9=Lolita - Seemann, deine Heimat ist das Meer
TTITLE10=Roger Whittaker - Albany
TTITLE11=Karel Gott and Darinka - Fang das Licht
TTITLE12=Christian Anders - Es fährt ein Zug nach Nirgendwo
TTITLE13=Howard Carpendale - Hello Again
TTITLE14=Bernd Clüver and Manuela - Der Junge mit der Mundharmonika
TTITLE15=Juliane Werding - Am Tag, als Conny Kramer starb
TTITLE16=Relax - Ein weißes Blatt'l Papier
TTITLE17=Seer - Wilds Wasser
TTITLE18=DJ Ötzi and Marc Pircher - 7 Sünden (Party Mix)
TTITLE19=Marco Ventre - Sehnsucht war gestern
TTITLE20=Münchner Freiheit - Ohne Dich (schlaf ich heut' Nacht nicht ein)
TTITLE21=Gilbert - Lady Lay
TTITLE22=Matthias Reim - Verdammt, ich lieb Dich
EXTD=
EXTT0=
EXTT1=
EXTT2=
EXTT3=
EXTT4=
EXTT5=
EXTT6=
EXTT7=
EXTT8=
EXTT9=
EXTT10=
EXTT11=
EXTT12=
EXTT13=
EXTT14=
EXTT15=
EXTT16=
EXTT17=
EXTT18=
EXTT19=
EXTT20=
EXTT21=
EXTT22=
PLAYORDER=
